<svg width="34" height="30" viewBox="0 0 34 30" fill="none" xmlns="http://www.w3.org/2000/svg">
<path d="M21.9745 13.2292H22.0603H21.9745ZM21.9745 13.2292L21.9748 5.4548L19.9824 9.3936L19.9819 13.2291V13.2292C19.9819 13.2738 19.9841 13.318 19.9885 13.3615L19.982 13.3581V14.472V14.4748C19.982 14.4749 19.982 14.4749 19.982 14.475C19.9819 14.5534 19.9703 14.6293 19.9479 14.7011L19.8246 14.7769C19.8717 14.6848 19.8966 14.582 19.8966 14.475V9.3936C19.8966 9.18581 20.0648 9.01735 20.2728 9.01735C20.4806 9.01735 20.6491 9.18557 20.6491 9.3936M21.9745 13.2292C21.9745 13.4068 21.906 13.5736 21.7806 13.6989C21.6558 13.8236 21.4894 13.8926 21.3116 13.8926C20.9462 13.8926 20.6486 13.595 20.6486 13.2292L20.6491 9.3936M20.6491 9.3936H20.5632H20.6491ZM17.624 16.0998L17.624 16.0998L17.624 16.0998ZM17.624 16.0998L17.6241 16.0999L17.624 16.0998ZM19.2147 15.8902C19.2182 15.8618 19.2211 15.8334 19.2235 15.8048C19.2267 15.8048 19.2299 15.8049 19.2331 15.8049C19.2332 15.8049 19.2333 15.8049 19.2334 15.8049C19.5881 15.8049 19.9233 15.6653 20.1734 15.4161L20.1739 15.4157C20.1739 15.4156 20.1739 15.4156 20.1739 15.4156C20.174 15.4156 20.174 15.4156 20.174 15.4155L19.2147 15.8902ZM19.2147 15.8902C19.2208 15.8903 19.227 15.8903 19.2331 15.8903C19.6115 15.8903 19.967 15.7431 20.2342 15.4759C20.286 15.4242 20.3333 15.3692 20.3758 15.3114L19.2147 15.8902ZM17.9465 14.8125L17.8987 15.6302L17.8961 15.6742C17.8849 15.8658 17.8103 16.0334 17.6843 16.1596L17.9465 14.8125ZM17.9465 14.8125C17.9183 14.7048 17.9033 14.5918 17.9033 14.4752V14.4168V14.4168L17.9035 9.39387M17.9465 14.8125L18.4843 9.39387M17.9035 9.39387V9.39383L18.1939 9.39385L18.4843 9.39387M17.9035 9.39387C17.9035 9.5543 18.0338 9.68428 18.1939 9.68428C18.3543 9.68428 18.4843 9.55398 18.4843 9.39387M17.9035 9.39387H18.1939H18.4843M18.4843 9.39387V14.4168V14.4752V14.9119V9.39387ZM18.0958 16.5707L18.0956 16.5709L18.3659 16.3608C18.3403 16.3489 18.3151 16.3365 18.2902 16.3237C18.236 16.4125 18.171 16.4955 18.0958 16.5707ZM18.4821 15.7085C18.4781 15.7762 18.4691 15.8431 18.4552 15.9087L18.5617 15.7131L18.7815 15.726C18.7184 15.7032 18.6575 15.6757 18.5993 15.6441C18.5597 15.6225 18.5214 15.5991 18.4843 15.5738V15.6302C18.4843 15.6564 18.4836 15.6825 18.4821 15.7085Z" fill="#4CAF4F" stroke="#4CAF4F" stroke-width="1.33333"/>
<path d="M8.73786 21.1468L13.0952 18.5328C13.2474 18.4414 13.3551 18.2965 13.398 18.1252M8.73786 21.1468L8.78205 21.2203L8.88101 21.3848L8.88103 21.3848L8.93172 21.4692L8.93202 21.4697L9.08141 21.7181M8.73786 21.1468C8.55999 21.2537 8.50203 21.4849 8.60899 21.663C8.71572 21.8413 8.94661 21.8993 9.12519 21.7918L14.9965 18.426C14.9963 18.4259 14.996 18.4259 14.9958 18.4258C14.9958 18.4258 14.9958 18.4258 14.9957 18.4258C14.933 18.4102 14.8714 18.4028 14.8117 18.4028C14.7013 18.4028 14.585 18.431 14.4697 18.4912L14.43 18.5119L14.4299 18.5119L13.7127 18.8863C13.644 18.9575 13.5671 19.0213 13.483 19.0764V19.1776L13.4826 19.1768L13.4823 19.1765L13.4389 19.1041C13.4388 19.1041 13.4386 19.1042 13.4385 19.1043L13.4383 19.1044L13.4382 19.1045L9.08141 21.7181M8.73786 21.1468L8.78198 21.2203L8.93139 21.4694L8.93169 21.4699L8.99886 21.5818L8.99891 21.5819L9.08082 21.7185L9.08099 21.7184L9.08107 21.7183L9.08141 21.7181M9.08141 21.7181C9.21793 21.636 9.26328 21.4586 9.18106 21.3206C9.18103 21.3206 9.18101 21.3206 9.18099 21.3205C9.18097 21.3205 9.18095 21.3205 9.18093 21.3204C9.18087 21.3203 9.1808 21.3202 9.18073 21.3201C9.18066 21.32 9.18059 21.3199 9.18052 21.3197C9.09782 21.1826 8.91934 21.1382 8.78222 21.2202L13.1393 18.6062L13.1393 18.6062L13.1394 18.6062L13.2977 18.5112H13.298L13.5161 18.3803L13.5055 18.1522L13.398 18.1252M13.398 18.1252L13.5055 18.1521L12.3757 17.4179C12.6898 17.2292 13.104 17.3037 13.2976 17.5838M13.398 18.1252C13.4451 17.9372 13.4093 17.745 13.2976 17.5838M13.2976 17.5838L13.2978 17.5837L13.2976 17.5838ZM2.36922 21.8275C2.3741 21.8205 2.37885 21.8137 2.38347 21.8071L2.50769 21.6008L2.51113 21.5951L2.55539 21.5216C2.75797 21.1852 3.28408 20.2387 4.82566 17.4615M2.36922 21.8275L4.82566 17.4615M2.36922 21.8275C2.36931 21.8274 2.36941 21.8272 2.36951 21.8271L2.37088 21.828L2.36922 21.8275ZM2.36922 21.8275L2.29919 21.7784L2.36922 21.8275ZM4.82566 17.4615C4.79926 17.4516 4.77291 17.4402 4.74679 17.4271C4.76143 17.4007 4.77513 17.3761 4.78781 17.3532C4.83906 17.2609 4.87376 17.1984 4.8877 17.1733L4.96349 17.2132C4.91667 17.2976 4.87073 17.3803 4.82566 17.4615ZM2.37023 21.8291L2.36878 21.8281C2.36888 21.828 2.36899 21.8278 2.36909 21.8277L2.37023 21.8291ZM4.89456 17.1609L4.31145 16.8378L4.97123 17.1992L4.89456 17.1609ZM5.07476 16.9118C5.09959 16.9257 5.12413 16.9411 5.14823 16.9582L6.01246 16.504C5.66147 16.5038 5.31881 16.6486 5.07476 16.9118ZM10.9212 24.7852C10.9211 24.7852 10.9211 24.7853 10.921 24.7853L10.9212 24.7852Z" fill="#4CAF4F" stroke="#4CAF4F" stroke-width="1.33333"/>
<path d="M25.5259 21.2199C25.5258 21.2198 25.5258 21.2198 25.5257 21.2198L25.5259 21.2199Z" fill="#4CAF4F" stroke="#4CAF4F" stroke-width="1.33333"/>
</svg>
