<svg width="48" height="32" viewBox="0 0 48 32" fill="none" xmlns="http://www.w3.org/2000/svg">
<path d="M31.7822 4.25C31.0507 4.24862 30.3225 4.34975 29.6191 4.55043L29.6191 4.55039L29.6133 4.55211C29.3909 4.61845 29.1575 4.63989 28.9267 4.61517C28.6959 4.59045 28.4724 4.52006 28.269 4.40811C28.0657 4.29615 27.8867 4.14487 27.7424 3.96307C27.5981 3.78126 27.4914 3.57257 27.4285 3.34914C27.3657 3.12571 27.3479 2.892 27.3762 2.66162C27.4045 2.43125 27.4784 2.20881 27.5935 2.00725C27.7086 1.8057 27.8626 1.62905 28.0467 1.48761C28.2307 1.34616 28.441 1.24274 28.6654 1.18336L28.6654 1.18344L28.6744 1.18089C29.6846 0.893284 30.7301 0.748251 31.7804 0.750001L31.7827 0.749995C34.1429 0.74314 36.4479 1.46385 38.3838 2.81399C40.3197 4.16413 41.7925 6.07809 42.6016 8.29529C43.4107 10.5125 43.5168 12.9252 42.9055 15.2048C42.2942 17.4845 40.9952 19.5204 39.1853 21.0353L38.575 21.5462L39.3001 21.8743C42.2734 23.2198 44.832 25.3372 46.7098 28.0065L46.712 28.0095C46.8454 28.1962 46.9405 28.4075 46.9915 28.6312C47.0426 28.8549 47.0486 29.0865 47.0094 29.3126C46.9701 29.5387 46.8863 29.7547 46.7628 29.9481C46.6394 30.1414 46.4787 30.3084 46.2901 30.4391L46.575 30.85L46.2843 30.4432C45.9923 30.6519 45.6423 30.7635 45.2835 30.7625C45.0029 30.7608 44.7267 30.6923 44.4778 30.5628C44.2287 30.4332 44.0141 30.2461 43.8516 30.0171M31.7822 4.25L31.7812 4.75V4.25C31.7816 4.25 31.7819 4.25 31.7822 4.25ZM31.7822 4.25C33.9036 4.25025 35.938 5.09307 37.4381 6.59314C38.9384 8.09343 39.7812 10.1283 39.7812 12.25C39.7812 14.3717 38.9384 16.4066 37.4381 17.9069C35.9378 19.4071 33.903 20.25 31.7812 20.25C31.3171 20.25 30.872 20.4344 30.5438 20.7626C30.2156 21.0907 30.0312 21.5359 30.0312 22C30.0312 22.4641 30.2156 22.9092 30.5438 23.2374C30.872 23.5656 31.3171 23.75 31.7812 23.75H31.7818C34.1486 23.7526 36.4801 24.3232 38.5805 25.414C40.6806 26.5045 42.4882 28.0831 43.8516 30.0171M43.8516 30.0171C43.8516 30.017 43.8516 30.017 43.8516 30.017L43.4441 30.306L43.8524 30.0182C43.8522 30.0178 43.8519 30.0174 43.8516 30.0171ZM23.9031 21.0361L23.2958 21.5471L24.0189 21.8743C26.9922 23.2198 29.5507 25.3372 31.4286 28.0064L31.4357 28.0166L31.4434 28.0264C31.5892 28.2133 31.6956 28.4279 31.7561 28.6571C31.8165 28.8864 31.8297 29.1255 31.7949 29.36C31.7601 29.5945 31.678 29.8195 31.5537 30.0213C31.4293 30.2232 31.2652 30.3976 31.0713 30.5341C30.8775 30.6706 30.6579 30.7663 30.426 30.8153C30.194 30.8644 29.9545 30.8658 29.722 30.8195C29.4895 30.7732 29.2688 30.6801 29.0734 30.5459C28.8779 30.4117 28.7118 30.2392 28.585 30.0389L28.5786 30.0288L28.5717 30.0189C27.211 28.0809 25.4036 26.4989 23.3025 25.4068C21.2013 24.3147 18.868 23.7446 16.5 23.7446C14.132 23.7446 11.7987 24.3147 9.69754 25.4068C7.59636 26.4989 5.78901 28.0809 4.42829 30.0189L4.42717 30.0205C4.26721 30.2503 4.05394 30.4378 3.80562 30.567C3.55731 30.6962 3.28136 30.7633 3.00144 30.7625L2.99837 30.7625C2.63936 30.7637 2.28907 30.652 1.997 30.4432L1.9946 30.4415C1.61602 30.1743 1.3589 29.7678 1.27961 29.3112C1.20033 28.8547 1.30536 28.3853 1.57168 28.0061C3.44949 25.3371 6.00797 23.2197 8.98114 21.8743L9.70422 21.5471L9.09687 21.0361C7.29184 19.5177 5.9974 17.4809 5.38905 15.2019C4.7807 12.9229 4.88786 10.5119 5.69601 8.29589C6.50416 6.07986 7.9742 4.16594 9.90683 2.8136C11.8395 1.46125 14.1412 0.735916 16.5 0.735916C18.8588 0.735916 21.1605 1.46125 23.0932 2.8136C25.0258 4.16594 26.4958 6.07986 27.304 8.29589C28.1121 10.5119 28.2193 12.9229 27.6109 15.2019C27.0026 17.4809 25.7082 19.5177 23.9031 21.0361ZM9.84824 7.80543C8.96919 9.12103 8.5 10.6677 8.5 12.25C8.5 14.3717 9.34285 16.4066 10.8431 17.9069C12.3434 19.4071 14.3783 20.25 16.5 20.25C18.0822 20.25 19.629 19.7808 20.9446 18.9018C22.2602 18.0227 23.2855 16.7733 23.891 15.3115C24.4965 13.8497 24.655 12.2411 24.3463 10.6893C24.0376 9.13743 23.2757 7.71196 22.1569 6.59314C21.038 5.47432 19.6126 4.7124 18.0607 4.40371C16.5089 4.09503 14.9003 4.25346 13.4385 4.85896C11.9767 5.46446 10.7273 6.48984 9.84824 7.80543Z" fill="#4CAF4F" stroke="#4CAF4F"/>
</svg>
